<?xml version='1.0' encoding='iso-8859-1'?>
<!DOCTYPE svg PUBLIC '-//W3C//DTD SVG 1.1//EN' 'http://www.w3.org/Graphics/SVG/1.1/DTD/svg11.dtd'>
<svg version="1.1" xmlns="http://www.w3.org/2000/svg" viewBox="0 0 315 315" xmlns:xlink="http://www.w3.org/1999/xlink" enable-background="new 0 0 315 315">
  <g>
    <path d="M308,62.841H7c-3.866,0-7,3.134-7,7V217.7c0,3.866,3.134,7,7,7h8.842v20.459c0,3.866,3.134,7,7,7s7-3.134,7-7V224.7   h251.092v20.459c0,3.866,3.134,7,7,7s7-3.134,7-7V224.7H308c3.866,0,7-3.134,7-7V69.841C315,65.975,311.866,62.841,308,62.841z    M14,126.127h287v35.287H14V126.127z M301,76.841v35.286H14V76.841H301z M14,210.7v-35.286h287V210.7H14z"/>
    <circle cx="157.5" cy="94.957" r="8.29"/>
    <circle cx="157.5" cy="143.771" r="8.29"/>
    <circle cx="157.5" cy="194.774" r="8.29"/>
  </g>
</svg>
